{"title":"Only Connect S13E15 Meeples v Belgophiles. revittony","magnet":"magnet:?xt=urn:btih:97afe83dcc62c4c1262c8be3a02971be84d5524c&dn=Only+Connect+S13E15+Meeples+v+Belgophiles.+revittony&tr=udp%3A%2F%2Ftracker.leechers-paradise.org%3A6969&tr=udp%3A%2F%2Fzer0day.ch%3A1337&tr=udp%3A%2F%2Fopen.demonii.com%3A1337&tr=udp%3A%2F%2Ftracker.coppersurfer.tk%3A6969&tr=udp%3A%2F%2Fexodus.desync.com%3A6969","uploader":"revittony1","categoryP":"video","categoryS":"tv_shows","size":"524133229","seeders":"0","leechers":"0","description":" \r\nFormat : MPEG-4 \r\nFormat profile : Base Media \r\nCodec ID : isom (isom/iso2/avc1/mp41) \r\nOverall bit rate mode : Variable \r\nOverall bit rate : 2 405 kb/s \r\n\r\nVideo \r\nID : 1 \r\nFormat : AVC \r\nFormat/Info : Advanced Video Codec \r\nFormat profile : <a href=\"/cdn-cgi/l/email-protection\" class=\"__cf_email__\" data-cfemail=\"e6ae8f818ea6aad2c8d7\">[email&#xA0;protected]</a> \r\nFormat settings, CABAC : Yes \r\nFormat settings, RefFrames : 2 frames \r\nCodec ID : avc1 \r\nCodec ID/Info : Advanced Video Coding \r\nBit rate mode : Variable \r\nBit rate : 2 306 kb/s \r\nMaximum bit rate : 3 500 kb/s \r\nWidth : 1 280 pixels \r\nHeight : 720 pixels \r\nDisplay aspect ratio : 16:9 \r\nFrame rate mode : Constant \r\nFrame rate : 25.000 FPS \r\nColor space : YUV \r\nChroma subsampling : 4:2:0 \r\nBit depth : 8 bits \r\nScan type : Progressive \r\nBits/(Pixel*Frame) : 0.100 \r\nStream size : 478 MiB (96%) \r\n\r\nAudio \r\nID : 2 \r\nFormat : AAC \r\nFormat/Info : Advanced Audio Codec \r\nFormat profile : LC \r\nCodec ID : 40 \r\nBit rate mode : Constant \r\nBit rate : 93.5 kb/s \r\nChannel(s) : 2 channels \r\nChannel positions : Front: L R \r\nSampling rate : 48.0 kHz \r\nFrame rate : 46.875 FPS (1024 SPF) \r\nCompression mode : Lossy \r\nStream size : 19.4 MiB (4%) \r\nDefault : Yes \r\nAlternate group : 1","last_updated":"2017-11-11T12:02:22.098Z","parsed":{"xt":"urn:btih:97afe83dcc62c4c1262c8be3a02971be84d5524c","dn":"Only Connect S13E15 Meeples v Belgophiles. revittony","tr":["udp://exodus.desync.com:6969","udp://open.demonii.com:1337","udp://tracker.coppersurfer.tk:6969","udp://tracker.leechers-paradise.org:6969","udp://zer0day.ch:1337"],"infoHash":"97afe83dcc62c4c1262c8be3a02971be84d5524c","infoHashBuffer":{"type":"Buffer","data":[151,175,232,61,204,98,196,193,38,44,139,227,160,41,113,190,132,213,82,76]},"name":"Only Connect S13E15 Meeples v Belgophiles. revittony","announce":["udp://exodus.desync.com:6969","udp://open.demonii.com:1337","udp://tracker.coppersurfer.tk:6969","udp://tracker.leechers-paradise.org:6969","udp://zer0day.ch:1337"],"urlList":[]}}